<svg width="25" height="26" viewBox="0 0 25 26" fill="none" xmlns="http://www.w3.org/2000/svg">
<path d="M16.667 0.961914C17.2191 0.96209 17.667 1.40974 17.667 1.96191V3.19922C22.7619 3.89789 24.5231 6.08716 24.9111 11.5771C24.9575 12.2334 24.9846 12.9368 24.9951 13.6904L25 14.4619C24.9999 23.6666 22.9293 25.8657 13.4414 25.9941L12.5 26C2.20639 26 5.8201e-05 23.9635 0 14.4619C0 13.4117 0.027022 12.4523 0.0888672 11.5771C0.476873 6.08721 2.23822 3.89887 7.33301 3.2002V1.96191C7.33301 1.40974 7.78087 0.96209 8.33301 0.961914C8.88529 0.961914 9.33301 1.40963 9.33301 1.96191V3.00781C10.0547 2.96349 10.8292 2.93764 11.6602 2.92773L12.5 2.92285C13.6546 2.92285 14.7076 2.94791 15.667 3.00684V1.96191C15.667 1.40963 16.1147 0.961914 16.667 0.961914ZM2.03809 12.5771C2.01358 13.1605 2 13.7877 2 14.4619C2.00003 19.2682 2.61775 21.2825 3.74609 22.3242C4.3077 22.8426 5.16633 23.2788 6.60645 23.5742C8.06092 23.8726 9.96853 24 12.5 24C15.0315 24 16.9391 23.8726 18.3936 23.5742C19.8337 23.2788 20.6923 22.8426 21.2539 22.3242C22.3822 21.2825 23 19.2682 23 14.4619C23 13.7877 22.9864 13.1605 22.9619 12.5771H2.03809ZM12.5 4.92285C11.3004 4.92285 10.2516 4.95263 9.33301 5.0127V5.80762C9.3328 6.35973 8.88517 6.80762 8.33301 6.80762C7.781 6.80744 7.33321 6.35962 7.33301 5.80762V5.22168C5.86742 5.44425 4.8708 5.79072 4.16895 6.26562C3.19524 6.92456 2.5071 8.04743 2.19336 10.5771H22.8066C22.4929 8.04743 21.8048 6.92456 20.8311 6.26562C20.1292 5.79072 19.1326 5.44425 17.667 5.22168V5.80762C17.6668 6.35962 17.219 6.80744 16.667 6.80762C16.1148 6.80762 15.6672 6.35973 15.667 5.80762V5.0127C14.7484 4.95263 13.6996 4.92285 12.5 4.92285Z" fill="white"/>
<path d="M9.37524 19.2307C9.92735 19.2309 10.3752 19.6786 10.3752 20.2307C10.3752 20.7829 9.92738 21.2305 9.37524 21.2307H6.25024C5.69796 21.2307 5.25024 20.783 5.25024 20.2307C5.25029 19.6784 5.69798 19.2307 6.25024 19.2307H9.37524ZM18.592 15.6506C18.9978 15.2761 19.6305 15.3007 20.0051 15.7063C20.3797 16.1121 20.3542 16.7448 19.9485 17.1194L15.7825 20.966C15.3994 21.3193 14.808 21.3195 14.425 20.966L12.8625 19.5237C12.4571 19.1491 12.4327 18.5163 12.8069 18.1106C13.1815 17.705 13.8142 17.6794 14.22 18.0539L15.1038 18.8694L18.592 15.6506ZM9.37524 15.385C9.92738 15.3852 10.3752 15.8328 10.3752 16.385C10.375 16.937 9.92725 17.3848 9.37524 17.385H6.25024C5.69808 17.385 5.25045 16.9371 5.25024 16.385C5.25024 15.8327 5.69796 15.385 6.25024 15.385H9.37524Z" fill="white"/>
</svg>
