<svg width="68" height="68" viewBox="0 0 68 68" fill="none" xmlns="http://www.w3.org/2000/svg">
<path fill-rule="evenodd" clip-rule="evenodd" d="M30.8125 10.625C19.6633 10.625 10.625 19.6633 10.625 30.8125C10.625 41.9617 19.6633 51 30.8125 51C41.9617 51 51 41.9617 51 30.8125C51 19.6633 41.9617 10.625 30.8125 10.625ZM6.375 30.8125C6.375 17.316 17.316 6.375 30.8125 6.375C44.309 6.375 55.25 17.316 55.25 30.8125C55.25 44.309 44.309 55.25 30.8125 55.25C17.316 55.25 6.375 44.309 6.375 30.8125Z" fill="#81838A"/>
<path fill-rule="evenodd" clip-rule="evenodd" d="M45.0882 45.0882C45.9181 44.2584 47.2636 44.2584 48.0934 45.0882L61.0028 57.9976C61.8327 58.8275 61.8327 60.1729 61.0028 61.0028C60.1729 61.8327 58.8275 61.8327 57.9976 61.0028L45.0882 48.0934C44.2584 47.2636 44.2584 45.9181 45.0882 45.0882Z" fill="#81838A"/>
</svg>
