<svg width="27" height="25" viewBox="0 0 27 25" fill="none" xmlns="http://www.w3.org/2000/svg">
<path d="M15.5127 22.875C15.1352 23.5319 14.396 24 13.5 24C12.604 24 11.8648 23.5319 11.4873 22.875H15.5127ZM13.5 1C13.9016 1 14.1416 1.29806 14.1416 1.5625V3.40137L14.9482 3.56152C18.3117 4.22619 20.71 6.89931 20.71 10.1562C20.71 12.7813 21.1993 14.5757 21.875 15.877C22.5461 17.1692 23.3805 17.9172 23.8428 18.3896H23.8438C23.9351 18.4829 23.9778 18.5751 23.9932 18.6602L24 18.7432C23.9983 19.0063 23.7713 19.3125 23.3516 19.3125H3.64844C3.22935 19.3125 3.00199 19.0073 3 18.7432C2.99926 18.6372 3.03452 18.5152 3.15723 18.3896C3.61954 17.9172 4.45395 17.1692 5.125 15.877C5.80068 14.5757 6.29004 12.7813 6.29004 10.1562C6.29004 6.89931 8.68829 4.22619 12.0518 3.56152L12.8584 3.40137V1.5625C12.8584 1.29806 13.0984 1 13.5 1Z" stroke="white" stroke-width="2"/>
<circle cx="24.5" cy="3.5" r="2.5" fill="#D32727"/>
</svg>
