<svg width="34" height="34" viewBox="0 0 34 34" fill="none" xmlns="http://www.w3.org/2000/svg">
<path fill-rule="evenodd" clip-rule="evenodd" d="M10.625 9.5625C8.27779 9.5625 6.375 11.4653 6.375 13.8125C6.375 16.1597 8.27779 18.0625 10.625 18.0625C12.9722 18.0625 14.875 16.1597 14.875 13.8125C14.875 11.4653 12.9722 9.5625 10.625 9.5625ZM4.25 13.8125C4.25 10.2917 7.10418 7.4375 10.625 7.4375C14.1458 7.4375 17 10.2917 17 13.8125C17 17.3333 14.1458 20.1875 10.625 20.1875C7.10418 20.1875 4.25 17.3333 4.25 13.8125Z" fill="white"/>
<path fill-rule="evenodd" clip-rule="evenodd" d="M19.125 10.625C19.125 10.0382 19.6007 9.5625 20.1875 9.5625H32.9375C33.5243 9.5625 34 10.0382 34 10.625C34 11.2118 33.5243 11.6875 32.9375 11.6875H20.1875C19.6007 11.6875 19.125 11.2118 19.125 10.625Z" fill="white"/>
<path fill-rule="evenodd" clip-rule="evenodd" d="M19.125 17C19.125 16.4132 19.6007 15.9375 20.1875 15.9375H32.9375C33.5243 15.9375 34 16.4132 34 17C34 17.5868 33.5243 18.0625 32.9375 18.0625H20.1875C19.6007 18.0625 19.125 17.5868 19.125 17Z" fill="white"/>
<path fill-rule="evenodd" clip-rule="evenodd" d="M22.3125 23.375C22.3125 22.7882 22.7882 22.3125 23.375 22.3125H32.9375C33.5243 22.3125 34 22.7882 34 23.375C34 23.9618 33.5243 24.4375 32.9375 24.4375H23.375C22.7882 24.4375 22.3125 23.9618 22.3125 23.375Z" fill="white"/>
<path fill-rule="evenodd" clip-rule="evenodd" d="M10.625 20.1708C8.97357 20.1708 7.3691 20.7205 6.06454 21.7331C4.75999 22.7457 3.82956 24.1637 3.41993 25.7635C3.27438 26.332 2.69556 26.6748 2.12709 26.5293C1.55863 26.3837 1.21579 25.8049 1.36134 25.2365C1.888 23.1795 3.08427 21.3564 4.76155 20.0544C6.43884 18.7525 8.50173 18.0458 10.625 18.0458C12.7483 18.0458 14.8112 18.7525 16.4885 20.0544C18.1658 21.3564 19.362 23.1795 19.8887 25.2365C20.0342 25.8049 19.6914 26.3837 19.1229 26.5293C18.5545 26.6748 17.9756 26.332 17.8301 25.7635C17.4205 24.1637 16.49 22.7457 15.1855 21.7331C13.8809 20.7205 12.2765 20.1708 10.625 20.1708Z" fill="white"/>
</svg>
