<svg width="25" height="25" viewBox="0 0 25 25" fill="none" xmlns="http://www.w3.org/2000/svg">
<path d="M13.5127 22.875C13.1352 23.5319 12.396 24 11.5 24C10.604 24 9.86478 23.5319 9.4873 22.875H13.5127ZM11.5 1C11.9016 1 12.1416 1.29806 12.1416 1.5625V3.40137L12.9482 3.56152C16.3117 4.22619 18.71 6.89931 18.71 10.1562C18.71 12.7813 19.1993 14.5757 19.875 15.877C20.5461 17.1692 21.3805 17.9172 21.8428 18.3896H21.8438C21.9351 18.4829 21.9778 18.5751 21.9932 18.6602L22 18.7432C21.9983 19.0063 21.7713 19.3125 21.3516 19.3125H1.64844C1.22935 19.3125 1.00199 19.0073 1 18.7432C0.999262 18.6372 1.03452 18.5152 1.15723 18.3896C1.61954 17.9172 2.45395 17.1692 3.125 15.877C3.80068 14.5757 4.29004 12.7813 4.29004 10.1562C4.29004 6.89931 6.68829 4.22619 10.0518 3.56152L10.8584 3.40137V1.5625C10.8584 1.29806 11.0984 1 11.5 1Z" stroke="white" stroke-width="2"/>
<circle cx="22.5" cy="3.5" r="2.5" fill="#D32727"/>
</svg>
